<?xml version="1.0" encoding="utf-8"?>
<svg xmlns="http://www.w3.org/2000/svg"
	xmlns:xlink="http://www.w3.org/1999/xlink"
	width="44px" height="28px" viewBox="0 0 44 28">
<path fillRule="evenodd" d="M 4.4 24.89C 4.4 24.89 39.6 24.89 39.6 24.89 40.41 24.89 41.07 24.19 41.07 23.33 41.07 23.33 41.07 1.55 41.07 1.55 41.07 0.7 40.41-0 39.6-0 39.6-0 4.4-0 4.4-0 3.59-0 2.93 0.7 2.93 1.56 2.93 1.56 2.93 23.33 2.93 23.33 2.93 24.19 3.59 24.89 4.4 24.89ZM 4.4 2.33C 4.4 1.9 4.73 1.55 5.13 1.55 5.13 1.55 38.87 1.55 38.87 1.55 39.27 1.55 39.6 1.9 39.6 2.33 39.6 2.33 39.6 22.55 39.6 22.55 39.6 22.98 39.27 23.33 38.87 23.33 38.87 23.33 5.13 23.33 5.13 23.33 4.73 23.33 4.4 22.98 4.4 22.55 4.4 22.55 4.4 2.33 4.4 2.33ZM 43.27 26.44C 43.27 26.44 0.73 26.44 0.73 26.44 0.33 26.44-0 26.79-0 27.22-0 27.65 0.33 28 0.73 28 0.73 28 43.27 28 43.27 28 43.67 28 44 27.65 44 27.22 44 26.79 43.67 26.44 43.27 26.44Z" fill="rgb(255,255,255)"/></svg>